<?xml version="1.0" encoding="UTF-8" standalone="no"?>
<!-- Created with Inkscape (http://www.inkscape.org/) -->

<svg
   width="41.149002mm"
   height="56.291122mm"
   viewBox="0 0 41.149002 56.291122"
   version="1.1"
   id="svg1"
   xml:space="preserve"
   inkscape:version="1.3 (0e150ed6c4, 2023-07-21)"
   sodipodi:docname="Grimace Edit.svg"
   xmlns:inkscape="http://www.inkscape.org/namespaces/inkscape"
   xmlns:sodipodi="http://sodipodi.sourceforge.net/DTD/sodipodi-0.dtd"
   xmlns="http://www.w3.org/2000/svg"
   xmlns:svg="http://www.w3.org/2000/svg"><sodipodi:namedview
     id="namedview1"
     pagecolor="#ffffff"
     bordercolor="#000000"
     borderopacity="0.25"
     inkscape:showpageshadow="2"
     inkscape:pageopacity="0.0"
     inkscape:pagecheckerboard="0"
     inkscape:deskcolor="#d1d1d1"
     inkscape:document-units="mm"
     inkscape:zoom="3.9945847"
     inkscape:cx="331.19838"
     inkscape:cy="203.65071"
     inkscape:window-width="2256"
     inkscape:window-height="1398"
     inkscape:window-x="-11"
     inkscape:window-y="-11"
     inkscape:window-maximized="1"
     inkscape:current-layer="layer2" /><defs
     id="defs1" /><g
     inkscape:groupmode="layer"
     id="layer2"
     inkscape:label="Layer 2"
     transform="translate(-66.506616,-26.001077)"><g
       id="g33"
       style="stroke:#00e6fe;stroke-opacity:1"
       transform="translate(-10.865853,-92.547093)"><path
         style="fill:none;stroke:#00e6fe;stroke-width:1.38411;stroke-linecap:round;stroke-dasharray:none;stroke-opacity:1"
         d="m 80.919238,142.24556 c 0.220301,-4.30404 2.866616,-6.00977 2.866616,-6.00977"
         id="path10"
         inkscape:transform-center-x="-2.511047"
         inkscape:transform-center-y="0.10152795"
         sodipodi:nodetypes="cc" /><path
         style="fill:none;stroke:#00e6fe;stroke-width:1.265;stroke-linecap:round;stroke-dasharray:none;stroke-opacity:1"
         d="m 83.414157,136.64279 c 2.950641,-3.09115 5.784194,-3.86394 5.784194,-3.86394"
         id="path11" /><path
         style="fill:none;stroke:#00e6fe;stroke-width:1.25261;stroke-linecap:round;stroke-dasharray:none;stroke-opacity:1"
         d="m 88.981437,132.84625 c 4.577356,-1.34585 10.316131,1.10973 10.316131,1.10973"
         id="path12"
         sodipodi:nodetypes="cc" /><path
         style="fill:none;stroke:#00e6fe;stroke-width:1.24579;stroke-linecap:round;stroke-dasharray:none;stroke-opacity:1"
         d="m 87.690008,133.25682 c 1.949232,-4.98243 6.740112,-9.76101 6.740112,-9.76101"
         id="path13"
         sodipodi:nodetypes="cc" /><path
         style="fill:none;stroke:#00e6fe;stroke-width:1.28661;stroke-linecap:round;stroke-dasharray:none;stroke-opacity:1"
         d="m 99.233046,133.65433 c -1.547362,-5.6312 -4.472844,-10.1127 -4.472844,-10.1127"
         id="path14" /><path
         style="fill:none;stroke:#00e6fe;stroke-width:1.35851;stroke-linecap:round;stroke-dasharray:none;stroke-opacity:1"
         d="m 90.603338,128.70408 c 0.440138,2.30203 3.325483,3.46598 3.325483,3.46598 v 0"
         id="path15" /><path
         style="fill:none;stroke:#00e6fe;stroke-width:1.265;stroke-linecap:round;stroke-dasharray:none;stroke-opacity:1"
         d="m 91.961649,126.24529 c 1.920258,2.22469 5.760775,3.60634 5.760775,3.60634"
         id="path16" /><path
         style="fill:none;stroke:#00e6fe;stroke-width:1.265;stroke-linecap:round;stroke-dasharray:none;stroke-opacity:1"
         d="m 93.062283,124.60604 c -1.04209,-0.83133 -2.04935,-1.09554 -2.189561,-2.65792 -0.162351,-1.80908 2.324127,-0.6966 2.575957,-0.86646 0.363383,-0.24509 0.03513,-2.00221 1.744625,-1.89683 2.307371,0.14224 1.430001,1.72493 1.334812,2.81013 -0.05854,0.66741 2.113719,0.1862 1.557285,1.74463 -0.161424,0.45211 -2.271527,1.41677 -2.271527,1.41677"
         id="path17"
         sodipodi:nodetypes="csssssc" /><path
         style="fill:none;stroke:#00e6fe;stroke-width:1.265;stroke-linecap:round;stroke-dasharray:none;stroke-opacity:1"
         d="m 100.16373,135.00354 c 0.77279,0.72595 1.53386,2.01393 1.53386,2.01393"
         id="path18" /><path
         style="fill:none;stroke:#00e6fe;stroke-width:1.265;stroke-linecap:round;stroke-dasharray:none;stroke-opacity:1"
         d="m 102.24495,138.14757 0.30911,-0.1637"
         id="path19"
         sodipodi:nodetypes="cc" /><path
         style="fill:none;stroke:#00e6fe;stroke-width:1.29845;stroke-linecap:round;stroke-dasharray:none;stroke-opacity:1"
         d="m 103.03737,139.50131 c 0.98079,6.03701 0.32157,11.55298 0.32157,11.55298 v -0.018"
         id="path20" /><path
         style="fill:none;stroke:#00e6fe;stroke-width:1.265;stroke-linecap:round;stroke-miterlimit:4;stroke-dasharray:none;stroke-opacity:1"
         d="m 100.49223,148.37507 c 2.84103,4.01573 5.5875,4.96914 5.5875,4.96914"
         id="path21" /><path
         style="fill:none;stroke:#00e6fe;stroke-width:1.32714;stroke-linecap:round;stroke-miterlimit:4;stroke-dasharray:none;stroke-opacity:1"
         d="m 101.0071,148.92919 c 2.9417,3.37119 6.39582,4.30941 6.39582,4.30941"
         id="path22" /><path
         style="fill:none;stroke:#00e6fe;stroke-width:1.865;stroke-linecap:round;stroke-miterlimit:4;stroke-dasharray:none;stroke-opacity:1"
         d="m 105.51316,152.73907 c 1.93738,1.30815 3.32833,0.99354 3.32833,0.99354"
         id="path23"
         sodipodi:nodetypes="cc" /><path
         style="fill:none;stroke:#00e6fe;stroke-width:1.5;stroke-linecap:round;stroke-miterlimit:4;stroke-dasharray:none;stroke-opacity:1"
         d="m 107.77551,153.32898 c 2.88705,0.4068 3.00958,2.3969 3.00958,2.3969"
         id="path25"
         sodipodi:nodetypes="cc" /><path
         style="fill:none;stroke:#00e6fe;stroke-width:1.5;stroke-linecap:round;stroke-miterlimit:4;stroke-dasharray:none;stroke-opacity:1"
         d="m 97.605336,159.10044 c 2.253297,2.1181 5.072594,1.73042 7.003634,1.26197 0.88827,-0.21548 5.89956,-4.23603 5.89956,-4.23603"
         id="path26"
         sodipodi:nodetypes="csc" /><path
         style="fill:none;stroke:#00e6fe;stroke-width:1.50719;stroke-linecap:round;stroke-miterlimit:4;stroke-dasharray:none;stroke-opacity:1"
         d="m 110.01152,156.92405 4.18612,-1.27612"
         id="path27"
         inkscape:transform-center-x="-0.40788501"
         inkscape:transform-center-y="-0.59810091" /><path
         style="fill:none;stroke:#00e6fe;stroke-width:1.5;stroke-linecap:round;stroke-miterlimit:4;stroke-dasharray:none;stroke-opacity:1"
         d="m 114.72374,155.58777 c 4.37913,-0.23418 2.75159,10.74877 2.75159,10.74877"
         id="path28"
         sodipodi:nodetypes="cc" /><path
         style="fill:none;stroke:#00e6fe;stroke-width:1.5;stroke-linecap:round;stroke-miterlimit:4;stroke-dasharray:none;stroke-opacity:1"
         d="m 79.620474,146.03332 c -2.950639,10.77218 -0.63228,17.39941 -0.63228,17.39941"
         id="path29"
         sodipodi:nodetypes="cc" /><path
         style="fill:none;stroke:#00e6fe;stroke-width:1.5;stroke-linecap:round;stroke-miterlimit:4;stroke-dasharray:none;stroke-opacity:1"
         d="m 80.065413,166.12578 c 4.168365,7.75129 10.773431,7.81758 11.662058,7.89179 11.114849,0.92817 25.642479,-7.58735 25.642479,-7.58735"
         id="path30"
         sodipodi:nodetypes="csc" /><path
         style="fill:none;stroke:#00e6fe;stroke-width:0.8;stroke-linecap:round;stroke-miterlimit:4;stroke-dasharray:none;stroke-opacity:1"
         d="m 79.029175,165.27689 0.69668,-0.33956"
         id="path31" /><path
         style="fill:none;stroke:#00e6fe;stroke-width:0.802509;stroke-linecap:round;stroke-miterlimit:4;stroke-dasharray:none;stroke-opacity:1"
         d="m 79.493077,144.65788 0.810971,0.20418"
         id="path32"
         sodipodi:nodetypes="cc" /><path
         style="fill:none;stroke:#00e6fe;stroke-width:0.799999;stroke-linecap:round;stroke-miterlimit:4;stroke-dasharray:none;stroke-opacity:1"
         d="m 79.821699,143.57419 0.616225,0.14103"
         id="path33"
         sodipodi:nodetypes="cc" /></g></g></svg>
